HIERARCHY
ROOT Root
{
  OFFSET 0.0 0.0 0.0
  CHANNELS 6 Xposition Yposition Zposition Zrotation Yrotation Xrotation
  JOINT Hips
  {
    OFFSET 0.0 100.0 0.0
    CHANNELS 6 Xposition Yposition Zposition Zrotation Yrotation Xrotation
    JOINT Spine1
    {
      OFFSET -0.013727 5.003763 -0.053727
      CHANNELS 3 Zrotation Yrotation Xrotation
      JOINT Spine2
      {
        OFFSET -0.0 7.125301 -0.029825
        CHANNELS 3 Zrotation Yrotation Xrotation
        JOINT Chest
        {
          OFFSET -1e-06 7.550063 -0.815971
          CHANNELS 3 Zrotation Yrotation Xrotation
          JOINT Neck1
          {
            OFFSET -0.181677 26.311295 -0.553348
            CHANNELS 3 Zrotation Yrotation Xrotation
            JOINT Neck2
            {
              OFFSET -3e-06 7.709397 2.302585
              CHANNELS 3 Zrotation Yrotation Xrotation
              JOINT Head
              {
                OFFSET -5e-06 6.128916 1.953709
                CHANNELS 3 Zrotation Yrotation Xrotation
                JOINT HeadEnd
                {
                  OFFSET 0.003598 16.065403 -1.835379
                  CHANNELS 3 Zrotation Yrotation Xrotation
                }
                JOINT Jaw
                {
                  OFFSET 0.002637 0.475592 3.094941
                  CHANNELS 3 Zrotation Yrotation Xrotation
                }
                JOINT LeftEye
                {
                  OFFSET 3.206381 5.380205 7.586883
                  CHANNELS 3 Zrotation Yrotation Xrotation
                }
                JOINT RightEye
                {
                  OFFSET -3.22244 5.361869 7.558234
                  CHANNELS 3 Zrotation Yrotation Xrotation
                }
              }
            }
          }
          JOINT LeftShoulder
          {
            OFFSET 1.621652 23.237164 5.113413
            CHANNELS 3 Zrotation Yrotation Xrotation
            JOINT LeftArm
            {
              OFFSET 14.919846 2e-06 -5.502326
              CHANNELS 3 Zrotation Yrotation Xrotation
              JOINT LeftForeArm
              {
                OFFSET 28.739307 0.0 -0.002588
                CHANNELS 3 Zrotation Yrotation Xrotation
                JOINT LeftHand
                {
                  OFFSET 27.093981 -1e-06 0.002609
                  CHANNELS 3 Zrotation Yrotation Xrotation
                  JOINT LeftHandThumb1
                  {
                    OFFSET 2.276482 -1.392045 3.191413
                    CHANNELS 3 Zrotation Yrotation Xrotation
                    JOINT LeftHandThumb2
                    {
                      OFFSET 4.012836 -1.828127 1.641654
                      CHANNELS 3 Zrotation Yrotation Xrotation
                      JOINT LeftHandThumb3
                      {
                        OFFSET 2.798515 0.0 -3e-06
                        CHANNELS 3 Zrotation Yrotation Xrotation
                        JOINT LeftHandThumbEnd
                        {
                          OFFSET 3.180793 -4e-06 4e-06
                          CHANNELS 3 Zrotation Yrotation Xrotation
                        }
                      }
                    }
                  }
                  JOINT LeftHandIndex1
                  {
                    OFFSET 3.247555 -0.531998 2.296169
                    CHANNELS 3 Zrotation Yrotation Xrotation
                    JOINT LeftHandIndex2
                    {
                      OFFSET 6.364578 0.01206 0.1786
                      CHANNELS 3 Zrotation Yrotation Xrotation
                      JOINT LeftHandIndex3
                      {
                        OFFSET 3.662364 0.0 0.0
                        CHANNELS 3 Zrotation Yrotation Xrotation
                        JOINT LeftHandIndex4
                        {
                          OFFSET 2.329242 4e-06 4e-06
                          CHANNELS 3 Zrotation Yrotation Xrotation
                          JOINT LeftHandIndexEnd
                          {
                            OFFSET 2.759615 -0.180537 -0.113024
                            CHANNELS 3 Zrotation Yrotation Xrotation
                          }
                        }
                      }
                    }
                  }
                  JOINT LeftHandMiddle1
                  {
                    OFFSET 3.163495 0.240981 1.000332
                    CHANNELS 3 Zrotation Yrotation Xrotation
                    JOINT LeftHandMiddle2
                    {
                      OFFSET 6.19078 -0.259278 -1.002548
                      CHANNELS 3 Zrotation Yrotation Xrotation
                      JOINT LeftHandMiddle3
                      {
                        OFFSET 4.35652 -4e-06 -1e-06
                        CHANNELS 3 Zrotation Yrotation Xrotation
                        JOINT LeftHandMiddle4
                        {
                          OFFSET 2.996877 -8e-06 0.0
                          CHANNELS 3 Zrotation Yrotation Xrotation
                          JOINT LeftHandMiddleEnd
                          {
                            OFFSET 2.304287 -0.294569 -0.031741
                            CHANNELS 3 Zrotation Yrotation Xrotation
                          }
                        }
                      }
                    }
                  }
                  JOINT LeftHandRing1
                  {
                    OFFSET 2.882643 -0.053652 -0.322543
                    CHANNELS 3 Zrotation Yrotation Xrotation
                    JOINT LeftHandRing2
                    {
                      OFFSET 5.854541 -0.486202 -1.373841
                      CHANNELS 3 Zrotation Yrotation Xrotation
                      JOINT LeftHandRing3
                      {
                        OFFSET 4.350578 0.0 3e-06
                        CHANNELS 3 Zrotation Yrotation Xrotation
                        JOINT LeftHandRing4
                        {
                          OFFSET 2.651321 7e-06 2e-06
                          CHANNELS 3 Zrotation Yrotation Xrotation
                          JOINT LeftHandRingEnd
                          {
                            OFFSET 1.936105 0.077687 -7.1e-05
                            CHANNELS 3 Zrotation Yrotation Xrotation
                          }
                        }
                      }
                    }
                  }
                  JOINT LeftHandPinky1
                  {
                    OFFSET 2.8655 -0.310005 -1.600378
                    CHANNELS 3 Zrotation Yrotation Xrotation
                    JOINT LeftHandPinky2
                    {
                      OFFSET 5.087849 -1.331141 -1.77123
                      CHANNELS 3 Zrotation Yrotation Xrotation
                      JOINT LeftHandPinky3
                      {
                        OFFSET 3.070974 4e-06 0.0
                        CHANNELS 3 Zrotation Yrotation Xrotation
                        JOINT LeftHandPinky4
                        {
                          OFFSET 1.549672 0.0 1e-06
                          CHANNELS 3 Zrotation Yrotation Xrotation
                          JOINT LeftHandPinkyEnd
                          {
                            OFFSET 1.944893 -0.157802 0.057219
                            CHANNELS 3 Zrotation Yrotation Xrotation
                          }
                        }
                      }
                    }
                  }
                }
              }
            }
          }
          JOINT RightShoulder
          {
            OFFSET -1.380118 23.180309 5.214158
            CHANNELS 3 Zrotation Yrotation Xrotation
            JOINT RightArm
            {
              OFFSET -15.037196 1.2e-05 -5.545604
              CHANNELS 3 Zrotation Yrotation Xrotation
              JOINT RightForeArm
              {
                OFFSET -28.736639 2e-06 -0.002597
                CHANNELS 3 Zrotation Yrotation Xrotation
                JOINT RightHand
                {
                  OFFSET -27.133619 -0.0 0.002613
                  CHANNELS 3 Zrotation Yrotation Xrotation
                  JOINT RightHandThumb1
                  {
                    OFFSET -2.274032 -1.383988 3.163127
                    CHANNELS 3 Zrotation Yrotation Xrotation
                    JOINT RightHandThumb2
                    {
                      OFFSET -4.011429 -1.827466 1.640914
                      CHANNELS 3 Zrotation Yrotation Xrotation
                      JOINT RightHandThumb3
                      {
                        OFFSET -2.794935 -4e-06 -3e-06
                        CHANNELS 3 Zrotation Yrotation Xrotation
                        JOINT RightHandThumbEnd
                        {
                          OFFSET -3.183852 4e-06 1e-06
                          CHANNELS 3 Zrotation Yrotation Xrotation
                        }
                      }
                    }
                  }
                  JOINT RightHandIndex1
                  {
                    OFFSET -3.253266 -0.520057 2.282866
                    CHANNELS 3 Zrotation Yrotation Xrotation
                    JOINT RightHandIndex2
                    {
                      OFFSET -6.341917 0.012471 0.178266
                      CHANNELS 3 Zrotation Yrotation Xrotation
                      JOINT RightHandIndex3
                      {
                        OFFSET -3.654871 -8e-06 -0.0
                        CHANNELS 3 Zrotation Yrotation Xrotation
                        JOINT RightHandIndex4
                        {
                          OFFSET -2.327586 0.0 1e-06
                          CHANNELS 3 Zrotation Yrotation Xrotation
                          JOINT RightHandIndexEnd
                          {
                            OFFSET -2.76179 -0.180656 -0.113078
                            CHANNELS 3 Zrotation Yrotation Xrotation
                          }
                        }
                      }
                    }
                  }
                  JOINT RightHandMiddle1
                  {
                    OFFSET -3.168106 0.246593 1.00103
                    CHANNELS 3 Zrotation Yrotation Xrotation
                    JOINT RightHandMiddle2
                    {
                      OFFSET -6.180828 -0.258836 -1.000895
                      CHANNELS 3 Zrotation Yrotation Xrotation
                      JOINT RightHandMiddle3
                      {
                        OFFSET -4.348901 0.0 -0.0
                        CHANNELS 3 Zrotation Yrotation Xrotation
                        JOINT RightHandMiddle4
                        {
                          OFFSET -3.00024 -4e-06 -2e-06
                          CHANNELS 3 Zrotation Yrotation Xrotation
                          JOINT RightHandMiddleEnd
                          {
                            OFFSET -2.30252 -0.29437 -0.031706
                            CHANNELS 3 Zrotation Yrotation Xrotation
                          }
                        }
                      }
                    }
                  }
                  JOINT RightHandRing1
                  {
                    OFFSET -2.88569 -0.067952 -0.308858
                    CHANNELS 3 Zrotation Yrotation Xrotation
                    JOINT RightHandRing2
                    {
                      OFFSET -5.854198 -0.48613 -1.373731
                      CHANNELS 3 Zrotation Yrotation Xrotation
                      JOINT RightHandRing3
                      {
                        OFFSET -4.33881 -4e-06 -0.0
                        CHANNELS 3 Zrotation Yrotation Xrotation
                        JOINT RightHandRing4
                        {
                          OFFSET -2.654903 -4e-06 4e-06
                          CHANNELS 3 Zrotation Yrotation Xrotation
                          JOINT RightHandRingEnd
                          {
                            OFFSET -1.933568 0.077527 -5.2e-05
                            CHANNELS 3 Zrotation Yrotation Xrotation
                          }
                        }
                      }
                    }
                  }
                  JOINT RightHandPinky1
                  {
                    OFFSET -2.866425 -0.342796 -1.584145
                    CHANNELS 3 Zrotation Yrotation Xrotation
                    JOINT RightHandPinky2
                    {
                      OFFSET -5.091371 -1.332055 -1.772385
                      CHANNELS 3 Zrotation Yrotation Xrotation
                      JOINT RightHandPinky3
                      {
                        OFFSET -3.062664 -4e-06 1e-06
                        CHANNELS 3 Zrotation Yrotation Xrotation
                        JOINT RightHandPinky4
                        {
                          OFFSET -1.546529 4e-06 -2e-06
                          CHANNELS 3 Zrotation Yrotation Xrotation
                          JOINT RightHandPinkyEnd
                          {
                            OFFSET -1.945119 -0.157718 0.057211
                            CHANNELS 3 Zrotation Yrotation Xrotation
                          }
                        }
                      }
                    }
                  }
                }
              }
            }
          }
        }
      }
    }
    JOINT LeftLeg
    {
      OFFSET 10.043214 -8.434526 2.595655
      CHANNELS 3 Zrotation Yrotation Xrotation
      JOINT LeftShin
      {
        OFFSET -1e-06 -43.221752 -0.802913
        CHANNELS 3 Zrotation Yrotation Xrotation
        JOINT LeftFoot
        {
          OFFSET 1e-06 -42.155094 -3.481523
          CHANNELS 3 Zrotation Yrotation Xrotation
          JOINT LeftToeBase
          {
            OFFSET 0.0 -5.059472 13.231529
            CHANNELS 3 Zrotation Yrotation Xrotation
            JOINT LeftToeEnd
            {
              OFFSET -0.009607 -1.647619 6.513017
              CHANNELS 3 Zrotation Yrotation Xrotation
            }
          }
        }
      }
    }
    JOINT RightLeg
    {
      OFFSET -10.047278 -8.29526 2.620317
      CHANNELS 3 Zrotation Yrotation Xrotation
      JOINT RightShin
      {
        OFFSET 1e-06 -43.362206 -0.805556
        CHANNELS 3 Zrotation Yrotation Xrotation
        JOINT RightFoot
        {
          OFFSET 2e-06 -42.117393 -3.478398
          CHANNELS 3 Zrotation Yrotation Xrotation
          JOINT RightToeBase
          {
            OFFSET -0.0 -5.079609 13.284196
            CHANNELS 3 Zrotation Yrotation Xrotation
            JOINT RightToeEnd
            {
              OFFSET 0.009532 -1.634378 6.460591
              CHANNELS 3 Zrotation Yrotation Xrotation
            }
          }
        }
      }
    }
  }
}
MOTION
Frames: 4
Frame Time: 0.03333333333333333
0.0 0.0 0.0 0.0 -0.0 0.0 -268.469025 89.867088 -1142.897949 -41.271404 -65.950829 53.881824 -14.064566 -58.824944 15.020889 7.123974 -25.354214 3.933061 4.252628 -4.69244 44.74155 -10.722667 0.669353 -7.198712 4.62419 -21.772774 -7.080712 36.935555 -24.929142 -55.821949 7.7e-05 -2.4e-05 5e-06 0.293688 0.364803 -0.051613 0.731355 -3.631059 -11.304219 -0.147395 4.359134 -11.437772 -2.9568 -18.602255 33.771393 -72.361504 -27.085062 -26.640226 1.265222 -44.926609 -1.140055 105.876823 21.258583 10.723108 -5.882111 9.861291 0.70259 -10.93688 -0.360574 7.156211 0.0 8.774828 -1e-06 -23.702108 21.289268 3.977667 -1.844034 2.498505 -2.50728 -10.163607 4.678948 4.621112 -20.976038 -1e-06 1e-06 -21.226301 2.4517 -3.594004 0.0 -7e-06 -2e-06 -1.362682 2.240799 -0.746324 -21.334929 0.584911 3.008326 -13.821223 -2e-06 1e-06 -23.887184 -0.249076 -0.839484 -66.22644 5.395744 -6.233065 -0.294025 1.679688 0.833257 -14.218219 0.093217 1.300581 -34.212074 -0.287562 0.967172 -20.03323 0.964537 1.212842 1e-06 -0.0 1e-06 -3.440392 0.788235 0.501656 -15.928201 -3.16731 2.99971 -6.338831 -2e-06 1e-06 -18.123459 3.648183 -4.905673 -4e-06 2e-06 -1e-06 16.532972 6.526754 42.296005 46.996544 22.89477 -7.802396 -81.507179 82.400902 -76.491501 -56.971291 6.670052 -99.5392 2.243543 -5.255039 -3.180162 14.282896 -0.826594 6.95251 -3e-06 -12.690607 -1e-06 22.461256 -19.094931 3.919452 1.665667 -1.955922 -2.878302 4.727801 -4.170588 4.993926 11.020531 3e-06 -1e-06 12.109058 -3.735716 -2.866786 0.0 0.0 -0.0 1.291986 -1.92855 -1.49809 14.800138 0.567469 3.865611 14.242579 -1.341735 -6.660661 19.631975 0.143926 -0.648242 64.212593 -7.822854 -9.447255 0.35303 -1.511152 -0.031943 20.222801 3.684313 2.316634 18.787283 8e-06 -0.0 10.751633 -0.479869 1.397906 0.0 0.0 0.0 3.273808 0.305946 -0.58011 21.486824 11.83038 2.266135 8.16293 3e-06 -0.0 18.39909 -3.798985 -4.940574 2e-06 0.0 -0.0 41.588284 -33.941452 -61.861603 -0.038797 -0.581998 58.202919 -10.857285 -7.990316 -22.85787 1.289467 -2.081475 2.558161 0.0 -0.0 2e-06 38.757072 -65.077209 -22.289093 -0.313064 -0.408132 30.268719 -14.873492 -22.508135 -17.957829 -1.171735 0.671859 1.213754 -1e-06 -1e-06 -1e-06
0.0 0.0 0.0 0.0 -0.0 0.0 -266.551666 89.432625 -1135.563354 -171.507935 -27.528881 161.158813 -11.631827 -2.0878 8.231064 2.855932 -8.705166 2.311131 2.152388 -0.076969 45.31245 -11.28882 0.721888 -8.283017 4.737769 -20.136967 -6.823844 38.531975 -25.850971 -58.052681 7.8e-05 -2.3e-05 5e-06 0.307266 0.378928 -0.032511 0.760707 -3.570709 -11.260456 -0.149864 4.335097 -11.373127 -4.427869 -17.636202 34.377445 -72.081665 -28.314634 -25.051226 3.267777 -50.068398 -3.460376 109.809906 18.85309 13.701564 -5.882108 9.861287 0.70259 -10.936875 -0.360574 7.156208 0.0 8.774824 -1e-06 -23.632393 20.936012 4.332826 -1.844033 2.498504 -2.507278 -10.163603 4.678946 4.62111 -20.97603 -3e-06 2e-06 -21.226292 2.451697 -3.593999 0.0 -6e-06 -2e-06 -1.362682 2.240798 -0.746324 -21.334921 0.584909 3.008324 -13.821218 -3e-06 2e-06 -23.887175 -0.249079 -0.839481 -66.58857 4.800964 -5.7219 -0.294025 1.679686 0.833256 -14.218213 0.093215 1.300581 -34.212059 -0.287567 0.967172 -20.03322 0.964536 1.212845 -0.0 0.0 0.0 -3.440389 0.788233 0.501656 -15.928192 -3.167311 2.999708 -6.338829 0.0 1e-06 -18.123451 3.648183 -4.90567 -5e-06 1e-06 -1e-06 16.188242 9.882769 42.062691 45.31805 20.990923 -11.624822 -129.16037 82.654282 -126.63649 -58.161064 7.06145 -94.703186 2.243543 -5.255041 -3.180159 14.2829 -0.826595 6.952509 -3e-06 -12.690616 -1e-06 21.661942 -19.287651 3.873145 1.665666 -1.955922 -2.878301 4.727801 -4.170591 4.993928 11.020535 3e-06 -2e-06 12.10906 -3.735718 -2.866786 -1e-06 -1e-06 1e-06 1.291986 -1.928551 -1.498091 14.800139 0.567468 3.865611 14.242583 -1.341736 -6.660665 19.631983 0.143927 -0.648246 61.817673 -7.731102 -8.432072 0.353029 -1.511152 -0.031939 20.222805 3.684312 2.316633 18.787287 4e-06 -2e-06 10.751636 -0.47987 1.397907 -1e-06 0.0 0.0 3.273809 0.305949 -0.580111 21.48683 11.830384 2.266136 8.162933 3e-06 -1e-06 18.399096 -3.798988 -4.940578 2e-06 -0.0 0.0 25.794277 29.174067 -4.458673 0.094391 -0.351028 55.07827 -5.20611 -5.226142 -28.830847 1.300562 -1.9499 3.70023 0.0 -0.0 2e-06 8.835642 6.221866 -0.477603 -0.329474 -0.348982 47.715286 -18.19339 -22.035612 -20.21607 -1.261667 0.679449 2.758479 0.0 -1e-06 -2e-06
0.0 0.0 0.0 0.0 -0.0 0.0 -263.677734 89.377579 -1133.402344 -176.303528 -7.151122 158.758224 -9.191901 10.229607 9.315115 1.570298 -3.783335 2.035384 1.466341 2.456539 46.26572 -12.292738 0.229309 -8.469165 5.417627 -17.735403 -6.429343 40.227089 -24.794172 -60.298531 7.9e-05 -2.2e-05 4e-06 0.317684 0.377825 -0.000906 0.784658 -3.549018 -11.179046 -0.152077 4.306296 -11.260695 -7.090981 -16.294558 35.337357 -70.329742 -29.089783 -25.104662 3.345178 -51.616531 -3.459686 112.599342 17.384136 15.67617 -5.88211 9.861287 0.702591 -10.936879 -0.360574 7.156211 1e-06 8.77483 -1e-06 -24.185423 20.944363 4.157841 -1.844033 2.498506 -2.507278 -10.163608 4.678945 4.621112 -20.976038 -1e-06 4e-06 -21.226301 2.451699 -3.593999 1e-06 -7e-06 -3e-06 -1.362682 2.240798 -0.746324 -21.334929 0.58491 3.008328 -13.821223 -0.0 4e-06 -23.887188 -0.249075 -0.83948 -67.101685 5.4783 -6.980101 -0.294025 1.679689 0.833257 -14.218217 0.093215 1.300583 -34.212067 -0.287561 0.967176 -20.033226 0.96454 1.212845 -1e-06 1e-06 2e-06 -3.440391 0.788233 0.501656 -15.928198 -3.16731 2.999711 -6.338831 -1e-06 2e-06 -18.123459 3.648184 -4.90567 -4e-06 -1e-06 -2e-06 16.629658 11.632977 42.840733 42.524059 19.398338 -14.116651 -145.281799 81.810936 -142.648911 -58.861309 4.934976 -96.467773 2.243543 -5.25504 -3.180162 14.2829 -0.826592 6.952506 -5e-06 -12.690611 -1e-06 21.792767 -19.452024 4.011656 1.665667 -1.955923 -2.878301 4.727801 -4.170588 4.993926 11.020534 4e-06 -1e-06 12.109058 -3.735715 -2.866787 -0.0 -0.0 1e-06 1.291986 -1.92855 -1.498089 14.800138 0.567472 3.865611 14.242579 -1.341733 -6.660661 19.631975 0.143928 -0.648243 63.534569 -8.592427 -9.278722 0.353028 -1.51115 -0.031939 20.222803 3.684316 2.316633 18.787287 8e-06 0.0 10.751633 -0.479868 1.397907 0.0 1e-06 0.0 3.273809 0.305949 -0.580111 21.486832 11.830386 2.266136 8.162933 3e-06 0.0 18.399096 -3.798983 -4.940577 1e-06 -0.0 0.0 41.298538 42.936375 15.614253 0.047576 -0.443297 50.889339 -6.68111 -5.179179 -25.524509 1.298949 -1.935821 3.395341 0.0 -0.0 2e-06 14.547831 25.085436 1.608914 -0.216149 -0.352841 50.28915 -19.765121 -20.86529 -18.957167 -1.31701 0.772975 3.199991 0.0 2e-06 -1e-06
0.0 0.0 0.0 0.0 -0.0 0.0 -260.268097 89.236725 -1128.32251 179.570602 6.075474 155.352493 -8.673859 16.859009 9.889695 0.736904 -0.520962 2.006701 0.423352 4.920552 46.87553 -12.916443 0.537274 -7.717834 5.661174 -15.946692 -5.955671 40.555759 -22.590155 -60.430832 7.9e-05 -2.3e-05 4e-06 0.328032 0.387043 0.053579 0.835411 -3.515402 -11.143422 -0.182404 4.277954 -11.183047 -9.7392 -14.865332 35.820889 -68.883392 -28.808641 -26.421124 2.173695 -51.539478 -2.711973 114.944801 16.80621 17.198893 -5.88211 9.86129 0.702592 -10.936881 -0.360576 7.156213 1e-06 8.774831 -1e-06 -25.74877 21.332464 3.854547 -1.844033 2.498506 -2.507279 -10.163609 4.678948 4.621113 -20.97604 -3e-06 6e-06 -21.226301 2.4517 -3.593999 1e-06 -7e-06 -2e-06 -1.362682 2.240798 -0.746324 -21.33493 0.584909 3.008329 -13.821225 -0.0 5e-06 -23.887184 -0.249078 -0.839478 -67.636047 6.05971 -8.899775 -0.294025 1.679688 0.833256 -14.218221 0.093214 1.300584 -34.212082 -0.287561 0.967178 -20.033234 0.96454 1.212848 -1e-06 0.0 1e-06 -3.440391 0.788234 0.501657 -15.928201 -3.167312 2.999712 -6.338831 -2e-06 2e-06 -18.123459 3.648185 -4.905669 -5e-06 -0.0 -2e-06 17.447027 12.681305 43.883873 40.201965 18.334066 -15.165288 -149.219467 81.780251 -146.319946 -59.092285 2.93231 -98.366249 2.243543 -5.255039 -3.180159 14.282897 -0.826595 6.952507 -1e-06 -12.690612 -2e-06 22.463902 -20.419527 4.034144 1.665667 -1.955923 -2.878301 4.727801 -4.17059 4.993927 11.020534 2e-06 -1e-06 12.10906 -3.735718 -2.866785 -0.0 -0.0 1e-06 1.291985 -1.92855 -1.498091 14.800136 0.567468 3.865611 14.24258 -1.341738 -6.66066 19.631979 0.143926 -0.648246 66.890327 -10.09499 -11.684143 0.35303 -1.511151 -0.031939 20.222803 3.684311 2.316634 18.787283 4e-06 -2e-06 10.751634 -0.479869 1.397907 2e-06 1e-06 0.0 3.27381 0.305946 -0.580111 21.486828 11.830382 2.266136 8.162931 2e-06 -1e-06 18.399092 -3.798985 -4.940577 1e-06 -0.0 -0.0 57.131596 48.856079 35.602619 -0.005855 -0.513762 46.171169 -6.776777 -6.067122 -22.887957 1.322832 -1.996757 3.021987 0.0 1e-06 2e-06 19.969238 37.608036 2.845683 -0.182996 -0.374833 52.327736 -19.620161 -18.129148 -15.996373 -1.376006 0.857297 4.10667 -1e-06 1e-06 -1e-06
